<svg width="114" height="114" xmlns="http://www.w3.org/2000/svg"><defs><linearGradient x1="0%" y1="50%" y2="50%" id="a"><stop stop-color="#9553E9" offset="0%"/><stop stop-color="#6D74ED" offset="100%"/></linearGradient></defs><g fill="none" fill-rule="evenodd"><path d="M57 114C25.52 114 0 88.48 0 57S25.52 0 57 0s57 25.52 57 57-25.52 57-57 57zm0-2c30.376 0 55-24.624 55-55S87.376 2 57 2 2 26.624 2 57s24.624 55 55 55zm0-2C27.729 110 4 86.271 4 57S27.729 4 57 4s53 23.729 53 53-23.729 53-53 53z" fill="url(#a)"/><path d="M46.8 40L64 57.2 46.8 74.4H29l17.2-17.2L29 40h17.8zm26.9 0l17.2 17.2-17.2 17.2H55.9l17.2-17.2L55.9 40h17.8z" fill="#FFF" fill-rule="nonzero"/></g></svg>